<mxfile host="Electron" modified="2024-02-24T19:38:03.008Z" agent="Mozilla/5.0 (Macintosh; Intel Mac OS X 10_15_7) AppleWebKit/537.36 (KHTML, like Gecko) draw.io/23.1.5 Chrome/120.0.6099.109 Electron/28.1.0 Safari/537.36" etag="yB6YZFYUt_jY2fcqyjFF" version="23.1.5" type="device">
  <diagram name="Page-1" id="ehZWfuIIOro-p2YOregY">
    <mxGraphModel dx="1114" dy="780" grid="0" gridSize="10" guides="1" tooltips="1" connect="1" arrows="1" fold="1" page="1" pageScale="1" pageWidth="827" pageHeight="1169" math="0" shadow="0">
      <root>
        <mxCell id="0" />
        <mxCell id="1" parent="0" />
        <mxCell id="D6rK6OS65LiXDny4kU9m-78" value="Person&lt;&lt;Abstract&gt;&gt;" style="swimlane;fontStyle=2;align=center;verticalAlign=top;childLayout=stackLayout;horizontal=1;startSize=26;horizontalStack=0;resizeParent=1;resizeLast=0;collapsible=1;marginBottom=0;rounded=0;shadow=0;strokeWidth=1;fontFamily=Times New Roman;fontSize=10;movable=0;resizable=0;rotatable=0;deletable=0;editable=0;locked=1;connectable=0;" parent="1" vertex="1">
          <mxGeometry x="220" y="110" width="150" height="95" as="geometry">
            <mxRectangle x="230" y="140" width="160" height="26" as="alternateBounds" />
          </mxGeometry>
        </mxCell>
        <mxCell id="D6rK6OS65LiXDny4kU9m-79" value="# name: String" style="text;align=left;verticalAlign=top;spacingLeft=4;spacingRight=4;overflow=hidden;rotatable=0;points=[[0,0.5],[1,0.5]];portConstraint=eastwest;fontFamily=Times New Roman;fontSize=10;movable=0;resizable=0;deletable=0;editable=0;locked=1;connectable=0;" parent="D6rK6OS65LiXDny4kU9m-78" vertex="1">
          <mxGeometry y="26" width="150" height="14" as="geometry" />
        </mxCell>
        <mxCell id="D6rK6OS65LiXDny4kU9m-80" value="# phone: String" style="text;align=left;verticalAlign=top;spacingLeft=4;spacingRight=4;overflow=hidden;rotatable=0;points=[[0,0.5],[1,0.5]];portConstraint=eastwest;rounded=0;shadow=0;html=0;fontFamily=Times New Roman;fontSize=10;movable=0;resizable=0;deletable=0;editable=0;locked=1;connectable=0;" parent="D6rK6OS65LiXDny4kU9m-78" vertex="1">
          <mxGeometry y="40" width="150" height="14" as="geometry" />
        </mxCell>
        <mxCell id="D6rK6OS65LiXDny4kU9m-81" value="# email: String" style="text;align=left;verticalAlign=top;spacingLeft=4;spacingRight=4;overflow=hidden;rotatable=0;points=[[0,0.5],[1,0.5]];portConstraint=eastwest;rounded=0;shadow=0;html=0;fontFamily=Times New Roman;fontSize=10;movable=0;resizable=0;deletable=0;editable=0;locked=1;connectable=0;" parent="D6rK6OS65LiXDny4kU9m-78" vertex="1">
          <mxGeometry y="54" width="150" height="18" as="geometry" />
        </mxCell>
        <mxCell id="D6rK6OS65LiXDny4kU9m-82" value="# sex: String" style="text;align=left;verticalAlign=top;spacingLeft=4;spacingRight=4;overflow=hidden;rotatable=0;points=[[0,0.5],[1,0.5]];portConstraint=eastwest;rounded=0;shadow=0;html=0;fontFamily=Times New Roman;fontSize=10;movable=0;resizable=0;deletable=0;editable=0;locked=1;connectable=0;" parent="D6rK6OS65LiXDny4kU9m-78" vertex="1">
          <mxGeometry y="72" width="150" height="15" as="geometry" />
        </mxCell>
        <mxCell id="D6rK6OS65LiXDny4kU9m-84" value="Client" style="swimlane;fontStyle=0;align=center;verticalAlign=top;childLayout=stackLayout;horizontal=1;startSize=26;horizontalStack=0;resizeParent=1;resizeLast=0;collapsible=1;marginBottom=0;rounded=0;shadow=0;strokeWidth=1;fontFamily=Times New Roman;fontSize=10;movable=0;resizable=0;rotatable=0;deletable=0;editable=0;locked=1;connectable=0;" parent="1" vertex="1">
          <mxGeometry x="101" y="226" width="100" height="81" as="geometry">
            <mxRectangle x="130" y="380" width="160" height="26" as="alternateBounds" />
          </mxGeometry>
        </mxCell>
        <mxCell id="D6rK6OS65LiXDny4kU9m-85" value="- client_id: int" style="text;align=left;verticalAlign=top;spacingLeft=4;spacingRight=4;overflow=hidden;rotatable=0;points=[[0,0.5],[1,0.5]];portConstraint=eastwest;fontFamily=Times New Roman;fontSize=10;movable=0;resizable=0;deletable=0;editable=0;locked=1;connectable=0;" parent="D6rK6OS65LiXDny4kU9m-84" vertex="1">
          <mxGeometry y="26" width="100" height="15" as="geometry" />
        </mxCell>
        <mxCell id="D6rK6OS65LiXDny4kU9m-86" value="- branch_id: int" style="text;align=left;verticalAlign=top;spacingLeft=4;spacingRight=4;overflow=hidden;rotatable=0;points=[[0,0.5],[1,0.5]];portConstraint=eastwest;rounded=0;shadow=0;html=0;fontFamily=Times New Roman;fontSize=10;movable=0;resizable=0;deletable=0;editable=0;locked=1;connectable=0;" parent="D6rK6OS65LiXDny4kU9m-84" vertex="1">
          <mxGeometry y="41" width="100" height="14" as="geometry" />
        </mxCell>
        <mxCell id="D6rK6OS65LiXDny4kU9m-87" value="- assigned_to: String" style="text;align=left;verticalAlign=top;spacingLeft=4;spacingRight=4;overflow=hidden;rotatable=0;points=[[0,0.5],[1,0.5]];portConstraint=eastwest;rounded=0;shadow=0;html=0;fontFamily=Times New Roman;fontSize=10;movable=0;resizable=0;deletable=0;editable=0;locked=1;connectable=0;" parent="D6rK6OS65LiXDny4kU9m-84" vertex="1">
          <mxGeometry y="55" width="100" height="18" as="geometry" />
        </mxCell>
        <mxCell id="D6rK6OS65LiXDny4kU9m-89" value="" style="endArrow=block;endSize=10;endFill=0;shadow=0;strokeWidth=1;rounded=0;elbow=vertical;fontFamily=Times New Roman;fontSize=10;movable=0;resizable=0;rotatable=0;deletable=0;editable=0;locked=1;connectable=0;dashed=1;" parent="1" source="D6rK6OS65LiXDny4kU9m-84" target="D6rK6OS65LiXDny4kU9m-78" edge="1">
          <mxGeometry width="160" relative="1" as="geometry">
            <mxPoint x="200" y="203" as="sourcePoint" />
            <mxPoint x="200" y="203" as="targetPoint" />
          </mxGeometry>
        </mxCell>
        <mxCell id="D6rK6OS65LiXDny4kU9m-90" value="Employee" style="swimlane;fontStyle=0;align=center;verticalAlign=top;childLayout=stackLayout;horizontal=1;startSize=26;horizontalStack=0;resizeParent=1;resizeLast=0;collapsible=1;marginBottom=0;rounded=0;shadow=0;strokeWidth=1;fontFamily=Times New Roman;fontSize=10;movable=0;resizable=0;rotatable=0;deletable=0;editable=0;locked=1;connectable=0;" parent="1" vertex="1">
          <mxGeometry x="238" y="240" width="122" height="148" as="geometry">
            <mxRectangle x="340" y="380" width="170" height="26" as="alternateBounds" />
          </mxGeometry>
        </mxCell>
        <mxCell id="D6rK6OS65LiXDny4kU9m-91" value="- emp_id: int" style="text;align=left;verticalAlign=top;spacingLeft=4;spacingRight=4;overflow=hidden;rotatable=0;points=[[0,0.5],[1,0.5]];portConstraint=eastwest;fontFamily=Times New Roman;fontSize=10;movable=0;resizable=0;deletable=0;editable=0;locked=1;connectable=0;" parent="D6rK6OS65LiXDny4kU9m-90" vertex="1">
          <mxGeometry y="26" width="122" height="17" as="geometry" />
        </mxCell>
        <mxCell id="D6rK6OS65LiXDny4kU9m-92" value="- branch_id: int" style="text;align=left;verticalAlign=top;spacingLeft=4;spacingRight=4;overflow=hidden;rotatable=0;points=[[0,0.5],[1,0.5]];portConstraint=eastwest;fontFamily=Times New Roman;fontSize=10;movable=0;resizable=0;deletable=0;editable=0;locked=1;connectable=0;" parent="D6rK6OS65LiXDny4kU9m-90" vertex="1">
          <mxGeometry y="43" width="122" height="16" as="geometry" />
        </mxCell>
        <mxCell id="D6rK6OS65LiXDny4kU9m-93" value="- super_id: String" style="text;align=left;verticalAlign=top;spacingLeft=4;spacingRight=4;overflow=hidden;rotatable=0;points=[[0,0.5],[1,0.5]];portConstraint=eastwest;fontFamily=Times New Roman;fontSize=10;movable=0;resizable=0;deletable=0;editable=0;locked=1;connectable=0;" parent="D6rK6OS65LiXDny4kU9m-90" vertex="1">
          <mxGeometry y="59" width="122" height="18" as="geometry" />
        </mxCell>
        <mxCell id="D6rK6OS65LiXDny4kU9m-94" value="- salary: double" style="text;align=left;verticalAlign=top;spacingLeft=4;spacingRight=4;overflow=hidden;rotatable=0;points=[[0,0.5],[1,0.5]];portConstraint=eastwest;fontFamily=Times New Roman;fontSize=10;movable=0;resizable=0;deletable=0;editable=0;locked=1;connectable=0;" parent="D6rK6OS65LiXDny4kU9m-90" vertex="1">
          <mxGeometry y="77" width="122" height="14" as="geometry" />
        </mxCell>
        <mxCell id="D6rK6OS65LiXDny4kU9m-95" value="- age: int" style="text;align=left;verticalAlign=top;spacingLeft=4;spacingRight=4;overflow=hidden;rotatable=0;points=[[0,0.5],[1,0.5]];portConstraint=eastwest;fontFamily=Times New Roman;fontSize=10;movable=0;resizable=0;deletable=0;editable=0;locked=1;connectable=0;" parent="D6rK6OS65LiXDny4kU9m-90" vertex="1">
          <mxGeometry y="91" width="122" height="17" as="geometry" />
        </mxCell>
        <mxCell id="D6rK6OS65LiXDny4kU9m-96" value="- department: String" style="text;align=left;verticalAlign=top;spacingLeft=4;spacingRight=4;overflow=hidden;rotatable=0;points=[[0,0.5],[1,0.5]];portConstraint=eastwest;fontFamily=Times New Roman;fontSize=10;movable=0;resizable=0;deletable=0;editable=0;locked=1;connectable=0;" parent="D6rK6OS65LiXDny4kU9m-90" vertex="1">
          <mxGeometry y="108" width="122" height="17" as="geometry" />
        </mxCell>
        <mxCell id="D6rK6OS65LiXDny4kU9m-97" value="- role: Role" style="text;align=left;verticalAlign=top;spacingLeft=4;spacingRight=4;overflow=hidden;rotatable=0;points=[[0,0.5],[1,0.5]];portConstraint=eastwest;fontFamily=Times New Roman;fontSize=10;movable=0;resizable=0;deletable=0;editable=0;locked=1;connectable=0;" parent="D6rK6OS65LiXDny4kU9m-90" vertex="1">
          <mxGeometry y="125" width="122" height="16" as="geometry" />
        </mxCell>
        <mxCell id="D6rK6OS65LiXDny4kU9m-99" value="" style="endArrow=block;endSize=10;endFill=0;shadow=0;strokeWidth=1;rounded=0;elbow=vertical;fontFamily=Times New Roman;fontSize=10;movable=0;resizable=0;rotatable=0;deletable=0;editable=0;locked=1;connectable=0;dashed=1;" parent="1" source="D6rK6OS65LiXDny4kU9m-90" target="D6rK6OS65LiXDny4kU9m-78" edge="1">
          <mxGeometry width="160" relative="1" as="geometry">
            <mxPoint x="210" y="373" as="sourcePoint" />
            <mxPoint x="310" y="271" as="targetPoint" />
          </mxGeometry>
        </mxCell>
        <mxCell id="D6rK6OS65LiXDny4kU9m-100" value="Supplier" style="swimlane;fontStyle=0;align=center;verticalAlign=top;childLayout=stackLayout;horizontal=1;startSize=26;horizontalStack=0;resizeParent=1;resizeLast=0;collapsible=1;marginBottom=0;rounded=0;shadow=0;strokeWidth=1;fontFamily=Times New Roman;fontSize=10;movable=0;resizable=0;rotatable=0;deletable=0;editable=0;locked=1;connectable=0;" parent="1" vertex="1">
          <mxGeometry x="379" y="236" width="121" height="82" as="geometry">
            <mxRectangle x="130" y="380" width="160" height="26" as="alternateBounds" />
          </mxGeometry>
        </mxCell>
        <mxCell id="D6rK6OS65LiXDny4kU9m-101" value="- supply_type: String" style="text;align=left;verticalAlign=top;spacingLeft=4;spacingRight=4;overflow=hidden;rotatable=0;points=[[0,0.5],[1,0.5]];portConstraint=eastwest;fontFamily=Times New Roman;fontSize=10;movable=0;resizable=0;deletable=0;editable=0;locked=1;connectable=0;" parent="D6rK6OS65LiXDny4kU9m-100" vertex="1">
          <mxGeometry y="26" width="121" height="21" as="geometry" />
        </mxCell>
        <mxCell id="D6rK6OS65LiXDny4kU9m-102" value="- supplesToBranches: &#xa;HashMap&lt;Integer, Supply&gt;" style="text;align=left;verticalAlign=top;spacingLeft=4;spacingRight=4;overflow=hidden;rotatable=0;points=[[0,0.5],[1,0.5]];portConstraint=eastwest;rounded=0;shadow=0;html=0;fontFamily=Times New Roman;fontSize=10;movable=0;resizable=0;deletable=0;editable=0;locked=1;connectable=0;" parent="D6rK6OS65LiXDny4kU9m-100" vertex="1">
          <mxGeometry y="47" width="121" height="30" as="geometry" />
        </mxCell>
        <mxCell id="D6rK6OS65LiXDny4kU9m-104" value="" style="endArrow=block;endSize=10;endFill=0;shadow=0;strokeWidth=1;rounded=0;elbow=vertical;fontFamily=Times New Roman;fontSize=10;exitX=0.5;exitY=0;exitDx=0;exitDy=0;movable=0;resizable=0;rotatable=0;deletable=0;editable=0;locked=1;connectable=0;dashed=1;entryX=1;entryY=1;entryDx=0;entryDy=0;" parent="1" source="D6rK6OS65LiXDny4kU9m-100" target="D6rK6OS65LiXDny4kU9m-78" edge="1">
          <mxGeometry width="160" relative="1" as="geometry">
            <mxPoint x="208" y="346" as="sourcePoint" />
            <mxPoint x="344" y="205" as="targetPoint" />
          </mxGeometry>
        </mxCell>
      </root>
    </mxGraphModel>
  </diagram>
</mxfile>
